# xmcd
# 
# Track frame offsets:
#     150
#     11463
#     21295
#     34135
#     46793
#     64433
#     79173
#     91978
#     104065
#     114063
#     124738
#     131338
#     142228
#     160178
#     173780
#     188085
# 
# Disc length: 2654
# 
# Revision: 1
# Processed by: cddbd v1.5.2PL0 Copyright (c) Steve Scherf et al.
# Submitted via: BonkEnc v1.0.8
# 
DISCID=d30a5c10
DTITLE=Various Artist - The Story Of The White Blues
DYEAR=0
DGENRE=Blues
TTITLE0=Eric Clapton - Snake Drive
TTITLE1=Eric Clapton - Tribute To Elmore
TTITLE2=John Mayall's Blues Breakers - On Top Of The World
TTITLE3=Earl Vince and The Valtants "Fleetwood Mac and Jeremy Spencer - Somebody's Gonna Get Their Head Kicked In Tonight
TTITLE4=Albert Lee - The Next Milestone
TTITLE5=Rod Stewart - So Much To Say
TTITLE6=Jimmy Page and Eric Clapton - Freight Loader
TTITLE7=Immediate All Stars and Jeff Beck - Steelin'
TTITLE8=John Mayall's Blues Breakers - I'm Your Witchdoctor
TTITLE9=Eric Clapton - West Coast Idea
TTITLE10=Eric Clapton - Choker
TTITLE11=Immediate All Stars and Jeff Beck - Chuckles
TTITLE12=John Mayall's Blues Breakers - Telephone Blues
TTITLE13=Immediate All Stars - Piano Shuffle
TTITLE14=Eric Clapton and Jimmy Page - Dragin' My Tail
TTITLE15=Eric Clapton and Jimmy Page - Miles Roads
EXTD=
EXTT0=E. Clapton
EXTT1=E.Clapton
EXTT2=J. Mayall's Blues Breakers
EXTT3=Earl Vince and The Valtans
EXTT4=Albert Lee
EXTT5=Rod Stewert
EXTT6=E. Clapton
EXTT7=Jeff Beck
EXTT8=J. Mayall's Blues Breakers
EXTT9=E. Clapton
EXTT10=E. Clapton
EXTT11=Jeff Beck
EXTT12=J. Mayall's Blues Breakers
EXTT13=All Stars
EXTT14=E. Clapton
EXTT15=E. Clapton
PLAYORDER=
